<?xml version="1.0" encoding="utf-8"?>
<!-- Generator: Adobe Illustrator 24.0.1, SVG Export Plug-In . SVG Version: 6.00 Build 0)  -->
<svg version="1.1" id="图层_1" xmlns="http://www.w3.org/2000/svg" xmlns:xlink="http://www.w3.org/1999/xlink" x="0px" y="0px"
	 viewBox="0 0 806.88 806.88" style="enable-background:new 0 0 806.88 806.88;" xml:space="preserve">
<style type="text/css">
	.st0{fill:none;stroke:#000000;stroke-miterlimit:10;}
	.st1{fill:#FFBC3F;stroke:#000000;stroke-miterlimit:10;}
	.st2{fill:#030003;}
	.st3{fill:#FFFFFF;stroke:#000000;stroke-miterlimit:10;}
	.st4{stroke:#000000;stroke-miterlimit:10;}
	.st5{fill:#DCCEFB;stroke:#000000;stroke-miterlimit:10;}
	.st6{fill:#DCCEFB;stroke:#FFFFFF;stroke-width:27;stroke-linecap:round;stroke-miterlimit:10;}
	.st7{fill:#3234EB;stroke:#000000;stroke-miterlimit:10;}
	.st8{fill:#DCCEFB;stroke:#FFFFFF;stroke-miterlimit:10;}
</style>
<line class="st0" x1="417.1" y1="55.24" x2="178.79" y2="581.63"/>
<line class="st0" x1="417.1" y1="55.24" x2="655.41" y2="574.66"/>
<path class="st1" d="M258.79,309.13c0-88.14,71.45-159.59,159.59-159.59s159.59,71.45,159.59,159.59H258.79z"/>
<ellipse class="st2" cx="418.38" cy="309.24" rx="159.59" ry="62.82"/>
<polygon class="st3" points="417.1,719.68 178.79,581.63 415.2,418.31 655.41,574.66 "/>
<polygon class="st4" points="418.34,702.65 233.72,544.97 416.1,419.5 602.95,541.65 "/>
<path class="st1" d="M258.79,517.21c0,88.14,71.45,159.59,159.59,159.59s159.59-71.45,159.59-159.59H258.79z"/>
<ellipse class="st2" cx="418.38" cy="517.09" rx="159.59" ry="62.82"/>
<circle class="st5" cx="418.68" cy="409.24" r="132.4"/>
<path class="st6" d="M952.26,336.88c27.01,19.75,40.84,55.39,32.23,91.07"/>
<path class="st6" d="M916.97,316.19c0.93,0.1,1.86,0.25,2.77,0.44"/>
<circle class="st7" cx="418.68" cy="410.85" r="71.2"/>
<line class="st0" x1="417.1" y1="55.24" x2="417.1" y2="719.68"/>
<circle class="st8" cx="1331.97" cy="427.24" r="42.63"/>
</svg>
