<?xml version="1.0" encoding="utf-8"?>
<!-- Generator: Adobe Illustrator 24.0.1, SVG Export Plug-In . SVG Version: 6.00 Build 0)  -->
<svg version="1.1" id="图层_1" xmlns="http://www.w3.org/2000/svg" xmlns:xlink="http://www.w3.org/1999/xlink" x="0px" y="0px"
	 viewBox="0 0 3298.26 806.88" style="enable-background:new 0 0 3298.26 806.88;" xml:space="preserve">
<style type="text/css">
	.st0{fill:none;stroke:#000000;stroke-miterlimit:10;}
	.st1{fill:#FFBC3F;stroke:#000000;stroke-miterlimit:10;}
	.st2{fill:#030003;}
	.st3{fill:#FFFFFF;stroke:#000000;stroke-miterlimit:10;}
	.st4{stroke:#000000;stroke-miterlimit:10;}
	.st5{fill:#DCCEFB;stroke:#000000;stroke-miterlimit:10;}
	.st6{fill:#3234EB;stroke:#000000;stroke-miterlimit:10;}
</style>
<line class="st0" x1="575.85" y1="74.66" x2="337.54" y2="601.04"/>
<line class="st0" x1="575.85" y1="74.66" x2="814.16" y2="594.07"/>
<path class="st1" d="M417.54,328.55c0-88.14,71.45-159.59,159.59-159.59s159.59,71.45,159.59,159.59H417.54z"/>
<ellipse class="st2" cx="577.13" cy="328.66" rx="159.59" ry="62.82"/>
<polygon class="st3" points="575.85,739.09 337.54,601.04 573.96,437.72 814.16,594.07 "/>
<polygon class="st4" points="577.09,722.06 392.47,564.39 574.86,438.92 761.7,561.07 "/>
<path class="st1" d="M417.54,536.63c0,88.14,71.45,159.59,159.59,159.59s159.59-71.45,159.59-159.59H417.54z"/>
<ellipse class="st2" cx="577.13" cy="536.51" rx="159.59" ry="62.82"/>
<circle class="st5" cx="577.43" cy="428.66" r="132.4"/>
<circle class="st6" cx="577.43" cy="430.27" r="71.2"/>
<line class="st0" x1="575.85" y1="74.66" x2="575.85" y2="739.09"/>
</svg>
