<?xml version="1.0" encoding="utf-8"?>
<!-- Generator: Adobe Illustrator 24.0.1, SVG Export Plug-In . SVG Version: 6.00 Build 0)  -->
<svg version="1.1" xmlns="http://www.w3.org/2000/svg" xmlns:xlink="http://www.w3.org/1999/xlink" x="0px" y="0px"
	 viewBox="0 0 283.46 283.46" style="enable-background:new 0 0 283.46 283.46;" xml:space="preserve">
<style type="text/css">
	.st0{fill:#FFFFFF;}
	.st1{fill:none;stroke:#FFFFFF;stroke-miterlimit:10;}
	.st2{fill:#DC9A14;}
	.st3{fill:#5F5F5F;}
	.st4{fill:none;stroke:#FFFFFF;stroke-width:0.5;stroke-miterlimit:10;}
	.st5{fill:#0D8AB8;}
	.st6{fill:#3DB8AD;}
	.st7{fill:#D25B28;}
	.st8{fill:url(#SVGID_1_);}
	.st9{fill:url(#SVGID_2_);}
	.st10{fill:url(#SVGID_3_);}
	.st11{fill:none;}
	.st12{fill:#DC576E;}
	.st13{fill:#4B5694;}
	.st14{display:none;}
	.st15{display:inline;fill:#5F5F5F;}
	.st16{display:inline;fill:#0D8AB8;}
	.st17{display:inline;fill:#3DB8AD;}
	.st18{display:inline;fill:#DC9A14;}
</style>
<g id="图层_1">
	<rect x="2521.91" y="-2080.13" class="st0" width="702.67" height="884.96"/>
	<rect x="343.81" y="-640.4" width="1313.44" height="886.42"/>
	<path class="st1" d="M-11.3-1918.33v0.58c0,8.62-6.99,15.62-15.62,15.62h-41.39c-4.82,0-8.73,3.91-8.73,8.73v87.05
		c0,24.5-16.76,45.09-39.44,50.92c-5.55,1.43-11.45,1.98-17.57,1.48c-25.61-2.11-46.17-22.87-48.01-48.5
		c-1.63-22.7,11.15-42.61,30.12-51.52c10.38-4.88,22.32,2.64,22.32,14.11v0.64c0,6.12-3.64,11.52-9.14,14.21
		c-6.89,3.38-11.64,10.47-11.64,18.66c0,11.48,9.31,20.78,20.78,20.78c1.33,0,2.62-0.12,3.88-0.36c5.41-1.03,9.26-5.88,9.26-11.39
		l0-84.04c0-7.38,1.52-14.4,4.27-20.77c6.36-14.79,19.32-26.07,35.17-30.16c4.2-1.07,8.61-1.65,13.15-1.65h36.96
		C-18.29-1933.95-11.3-1926.95-11.3-1918.33z"/>
	<path class="st1" d="M-11.3-1844.97v0.57c0,8.62-6.99,15.62-15.62,15.62h-21.35c-8.62,0-15.62-6.99-15.62-15.62v-0.57
		c0-8.63,6.99-15.62,15.62-15.62h21.35C-18.29-1860.59-11.3-1853.59-11.3-1844.97z"/>
	<circle class="st1" cx="129.35" cy="-1823.09" r="52.58"/>
	<circle class="st1" cx="129.35" cy="-1823.09" r="20.78"/>
	<circle class="st1" cx="195.07" cy="-1898.1" r="52.58"/>
	<circle class="st1" cx="195.07" cy="-1898.1" r="20.78"/>
	<rect x="142.49" y="-1950.68" class="st1" width="39.44" height="180.17"/>
	<rect x="142.49" y="-1950.68" class="st1" width="105.16" height="31.81"/>
	<rect x="142.49" y="-1877.32" class="st1" width="105.16" height="31.81"/>
	<line class="st1" x1="129.35" y1="-1823.09" x2="129.35" y2="-1894.85"/>
	<line class="st1" x1="195.07" y1="-1898.1" x2="195.07" y2="-1828.33"/>
	<path class="st2" d="M809.5-341.39c-1.09,1.07-2.18,2.15-3.25,3.25c-41.11,41.65-72.72,92.71-91.3,149.65h244.57v-244.57
		C902.41-414.42,851.22-382.68,809.5-341.39z M1077.64-570.35v0.01c0.12-0.01,0.24-0.01,0.37-0.01H1077.64z M1386.68-261.31
		c-0.78,105.1-85.82,190.15-190.92,190.93c-0.49,0.01-0.98,0.01-1.47,0.01h192.4v-191.67
		C1386.69-261.8,1386.69-261.55,1386.68-261.31z"/>
	<path class="st2" d="M1077.64-570.35v0.01c-40.69,0.16-80.25,5.17-118.12,14.48c-90.36,22.2-171.1,68.87-234.8,132.57
		c-0.41,0.41-0.81,0.81-1.2,1.22c-63.09,63.51-109.31,143.8-131.37,233.58c-9.31,37.87-14.32,77.43-14.48,118.12h-0.01v-499.98
		H1077.64z"/>
	<path class="st2" d="M809.5-341.39c-1.09,1.07-2.18,2.15-3.25,3.25c-41.11,41.65-72.72,92.71-91.3,149.65h244.57v-244.57
		C902.41-414.42,851.22-382.68,809.5-341.39z"/>
	<path class="st2" d="M1195.76-570.35v499.97c-0.49,0.01-0.98,0.01-1.47,0.01h-116.65v-499.97c0.12-0.01,0.24-0.01,0.37-0.01
		H1195.76z"/>
	<path class="st3" d="M2651.79-2080.86v0.73h-0.01C2651.79-2080.37,2651.79-2080.62,2651.79-2080.86z"/>
	<path class="st2" d="M1386.69-261.31v190.94h-190.93v-0.01c105.1-0.78,190.14-85.83,190.92-190.93H1386.69z"/>
	<path class="st3" d="M1195.76-70.38v0.01h-1.47C1194.78-70.37,1195.27-70.37,1195.76-70.38z"/>
	<path class="st3" d="M1195.76-70.38v0.01h-1.47C1194.78-70.37,1195.27-70.37,1195.76-70.38z"/>
	<path class="st3" d="M1195.76-70.38v0.01h-1.47C1194.78-70.37,1195.27-70.37,1195.76-70.38z"/>
	<path class="st3" d="M577.67-70.37c-0.01,0.7-0.01,1.41-0.01,2.11"/>
	<path class="st3" d="M1196.26-69.87c-3.66,0-7.28-0.17-10.86-0.5"/>
	<rect x="-1901.63" y="-2138.36" class="st4" width="809.03" height="499.98"/>
	<rect x="-1901.63" y="-2138.36" class="st4" width="499.98" height="499.98"/>
	<rect x="-1401.65" y="-2138.36" class="st4" width="309.05" height="309.05"/>
	<rect x="-1283.53" y="-1829.31" class="st4" width="190.93" height="190.93"/>
	<rect x="-1401.65" y="-1756.5" class="st4" width="118.12" height="118.12"/>
	<rect x="-1401.65" y="-1829.31" class="st4" width="72.81" height="72.81"/>
	<rect x="-1328.84" y="-1829.31" class="st4" width="45.31" height="45.31"/>
	<rect x="-1310.98" y="-1783.96" class="st4" width="27.45" height="27.45"/>
	<circle class="st4" cx="-1399.53" cy="-1636.27" r="502.1"/>
	<circle class="st4" cx="-1285" cy="-1830.78" r="192.4"/>
	<circle class="st4" cx="-1283.03" cy="-1756.5" r="118.62"/>
	<circle class="st4" cx="-1328.45" cy="-1756.5" r="73.2"/>
	<path class="st3" d="M2651.79-2081.59c0,0.12,0,0.23,0,0.35c0,0.13,0,0.25,0,0.38"/>
	<path class="st2" d="M809.5-341.39c-1.03,1.13-2.12,2.22-3.25,3.25C807.32-339.24,808.41-340.32,809.5-341.39z"/>
	<path class="st2" d="M959.53-188.64"/>
	<polygon class="st2" points="1078.21,-451.86 1077.64,-451.77 1077.64,-451.86 	"/>
	
		<text transform="matrix(1 0 0 1 628.9354 53.0718)" class="st0" style="font-family:'SourceHanSansCN-Medium-GBpc-EUC-H'; font-size:92.2544px;">AL国际贸易公司</text>
	
		<text transform="matrix(1 0 0 1 529.3324 145.1998)" class="st0" style="font-family:'SourceHanSansCN-Light-GBpc-EUC-H'; font-size:62.5321px;">AL Intertional Trading Company</text>
	<path class="st5" d="M3063.93-1960.35v75.46h-135.75c-11.14,0-20.18,9.03-20.18,20.18v207.04c0,58.12-39.76,106.97-93.56,120.8
		c-13.17,3.39-27.17,4.7-41.68,3.5c-60.75-5.02-109.52-54.26-113.9-115.06c-5.26-73.07,52.46-133.97,124.4-133.97v75.46
		c-27.21,0-49.3,22.06-49.3,49.27c0,27.23,22.09,49.3,49.3,49.3c11.81,0,22.68-4.18,31.17-11.13v-216.12
		c0-17.51,3.61-34.16,10.13-49.27c15.09-35.09,45.83-61.85,83.43-71.55c9.96-2.54,20.43-3.91,31.2-3.91H3063.93z"/>
	<rect x="2939.2" y="-1786.32" class="st6" width="124.73" height="75.44"/>
	
		<text transform="matrix(1 0 0 1 2626.7825 -1428.2659)" style="font-family:'SourceHanSerifCN-SemiBold-GBpc-EUC-H'; font-size:87.7747px;">国际贸易公司</text>
	<path class="st5" d="M398.83-1058.07v31.81H341.6c-4.7,0-8.51,3.81-8.51,8.51v87.27c0,24.5-16.76,45.09-39.44,50.92
		c-5.55,1.43-11.45,1.98-17.57,1.48c-25.61-2.11-46.17-22.87-48.01-48.5c-2.22-30.8,22.11-56.47,52.44-56.47v31.81
		c-11.47,0-20.78,9.3-20.78,20.77c0,11.48,9.31,20.78,20.78,20.78c4.98,0,9.56-1.76,13.14-4.69v-91.1c0-7.38,1.52-14.4,4.27-20.77
		c6.36-14.79,19.32-26.07,35.17-30.16c4.2-1.07,8.61-1.65,13.15-1.65H398.83z"/>
	<rect x="346.25" y="-984.71" class="st6" width="52.58" height="31.8"/>
	
		<text transform="matrix(1 0 0 1 -129.7288 -1444.2067)" style="font-family:'SourceHanSerifCN-SemiBold-GBpc-EUC-H'; font-size:37px;">国际贸易公司</text>
	<path class="st0" d="M126.67,129.43c-10.74,4.14-18.68,14-20.49,25.86L93.55,192c-0.14-0.11-0.27-0.22-0.4-0.33v0
		c-3.69-3.04-7.14-6.39-10.31-10.02c-2.64-3.01-5.08-6.2-7.32-9.56h0c-4.86-7.29-8.73-15.36-11.43-23.99
		c-0.49-1.56-0.94-3.15-1.35-4.75c-1.63-6.37-2.62-13.02-2.9-19.86c2.86-8.64,10.85-15.01,20.47-15.36l2.33,0.04l0.04,0l15.7,0.26
		c-0.06,0.78-0.08,1.57-0.05,2.37c0.11,3.05,0.89,5.91,2.19,8.47c0,0.01,0.01,0.02,0.02,0.03c0.18,0.36,0.37,0.71,0.57,1.06
		c0,0,0,0,0,0c3.77,6.42,10.93,10.63,19,10.34C122.42,130.62,124.63,130.18,126.67,129.43z"/>
	<path class="st7" d="M82.39,207.9c-0.52,0.24-1.04,0.46-1.58,0.66C81.31,208.3,81.84,208.07,82.39,207.9z"/>
	<path class="st7" d="M82.39,207.9c-0.52,0.24-1.04,0.46-1.58,0.66C81.31,208.3,81.84,208.07,82.39,207.9z"/>
	<path class="st7" d="M92.94,193.76c-0.34,2.25-1.09,4.37-2.16,6.28L92.94,193.76z"/>
	<linearGradient id="SVGID_1_" gradientUnits="userSpaceOnUse" x1="74.3546" y1="131.3637" x2="255.8939" y2="131.3637">
		<stop  offset="0.0402" style="stop-color:#E19525"/>
		<stop  offset="0.3199" style="stop-color:#D47328"/>
		<stop  offset="0.7083" style="stop-color:#D15328"/>
	</linearGradient>
	<path class="st8" d="M227.26,83.85c-0.09,1.03-0.13,2.07-0.13,3.12c0,7,1.63,7.94,3.16,13.31l1.54,4.39
		c0.36,1.02,0.6,2.07,0.73,3.14c0.41,3.35,1.09,7.69,1.09,10.74c0,13.63-3.31,24.83-7.94,36.7c-4.48,11.49-10.91,21.92-18.86,30.85
		c-0.01,0.01-0.01,0.02-0.02,0.03c-17.59,19.75-42.61,32.08-70.37,32.08l-21.45,1.1l-17.23,0.67l-23.28,0.91
		c-0.1-0.61-0.15-1.23-0.15-1.86c0-4.58,2.62-8.55,6.45-10.48l0,0c0.59,0,1.16-0.24,1.58-0.66l0.01-0.01
		c1.94-0.92,3.7-2.16,5.2-3.65c1.25-1.23,2.32-2.64,3.18-4.19l0-0.01c1.07-1.91,1.82-4.03,2.16-6.28v0l0.61-1.76l12.64-36.72
		c1.8-11.86,9.75-21.72,20.49-25.86c0.08-0.03,0.16-0.06,0.23-0.09c3.11-1.18,6.45-1.87,9.94-2c7.34-0.27,14.2,2.01,19.77,6.06
		c7.95,5.78,13.29,15.17,13.69,25.95l0.68-60.8c0-21.94,12.45-40.97,30.68-50.41c1.34-0.7,2.72-1.34,4.12-1.93
		c6.74-2.83,14.16-4.39,21.93-4.39c10.26,0,19.88,2.72,28.18,7.48c-15.35,4.71-26.79,17.7-28.53,33.46v0
		C227.32,83.13,227.29,83.49,227.26,83.85z"/>
	<path class="st7" d="M82.65,108.18l-2.33-0.04C81.1,108.11,81.88,108.13,82.65,108.18z"/>
	<path class="st7" d="M101.12,120.37c-0.2-0.35-0.4-0.7-0.57-1.06C100.75,119.66,100.94,120.01,101.12,120.37z"/>
	<path class="st7" d="M101.12,120.37c-0.2-0.35-0.4-0.7-0.57-1.06C100.75,119.66,100.94,120.01,101.12,120.37z"/>
	<linearGradient id="SVGID_2_" gradientUnits="userSpaceOnUse" x1="59.7668" y1="80.4072" x2="151.2084" y2="80.4072">
		<stop  offset="0.103" style="stop-color:#E19525"/>
		<stop  offset="0.5401" style="stop-color:#D47328"/>
		<stop  offset="1" style="stop-color:#EA5514"/>
	</linearGradient>
	<path class="st9" d="M136.11,82.32c6.37,7.78,11.5,16.71,15.08,26.45c0.1,0.26-0.1,0.54-0.38,0.54l-10.43-0.17l-41.97-0.7
		l-15.7-0.26l-0.04,0c-0.77-0.05-1.55-0.07-2.33-0.04c-8.93,0.33-16.44,5.83-19.77,13.51c-0.17,0.39-0.76,0.28-0.77-0.15
		c-0.01-0.66-0.02-1.32-0.02-1.99c0-26.5,10.69-50.37,27.77-67.11c5.51-5.4,12.23-9.51,18.94-13.27c0.36-0.2,0.22-0.35,0,0
		c-1.2,1.94-2.07,4.13-2.52,6.51c-0.88,4.67,0.01,9.26,2.21,13.07h0c0.18,0.32,0.37,0.63,0.58,0.94c0.1-0.17,0.21-0.34,0.32-0.51
		c3.25-5.01,8.85-8.37,15.24-8.51c0.19,0.29,0.18,0.28,0.37,0.57c-0.97,2.25-1.5,4.73-1.5,7.34c0,3.33,1.84,9.33,3.38,12.04
		c0.15,0.26,0.3-0.01,0,0"/>
	<linearGradient id="SVGID_3_" gradientUnits="userSpaceOnUse" x1="28.5353" y1="183.1198" x2="82.8373" y2="183.1198">
		<stop  offset="0" style="stop-color:#D47328"/>
		<stop  offset="0.0176" style="stop-color:#E19525"/>
		<stop  offset="1" style="stop-color:#EA5514"/>
	</linearGradient>
	<path class="st10" d="M82.84,181.66l-9.21,12.07l-9.75,12.78l-8.87,11.62H28.54c0.33-4.33,3.02-8.01,6.78-9.75
		c0.5-0.17,0.99-0.35,1.48-0.56c5.81-2.5,10.1-7.83,11.14-14.26l7.65-21.52l8.51-23.92c2.69,8.63,6.57,16.7,11.43,23.99h0
		C77.75,175.46,80.2,178.65,82.84,181.66z"/>
	<line class="st11" x1="84.66" y1="244.33" x2="84.58" y2="244.55"/>
	<line class="st11" x1="92.94" y1="193.76" x2="90.78" y2="200.05"/>
	<line class="st11" x1="90.78" y1="200.05" x2="90.34" y2="201.31"/>
	<polyline class="st7" points="122.3,50.63 122.96,50.63 122.67,51.19 	"/>
	
		<rect x="-114.37" y="57.89" transform="matrix(0.7071 -0.7071 0.7071 0.7071 -78.2813 -54.624)" class="st12" width="18.59" height="18.59"/>
	<circle class="st12" cx="-112.06" cy="60.2" r="9.29"/>
	<circle class="st13" cx="-98.1" cy="60.2" r="9.29"/>
	
		<rect x="-102.75" y="62.13" transform="matrix(0.7071 -0.7071 0.7071 0.7071 -75.9493 -49.8089)" class="st13" width="9.29" height="9.29"/>
</g>
<g id="图层_2" class="st14">
	<path class="st15" d="M1869.1-2052.38v0.73h-0.01C1869.1-2051.89,1869.1-2052.14,1869.1-2052.38z"/>
	<path class="st15" d="M1869.1-2053.11c0,0.12,0,0.23,0,0.35c0,0.13,0,0.25,0,0.38"/>
	<path class="st16" d="M2281.24-1931.86v75.46h-135.75c-11.14,0-20.18,9.03-20.18,20.18v207.04c0,58.12-39.76,106.97-93.56,120.8
		c-13.17,3.39-27.17,4.7-41.68,3.5c-60.75-5.02-109.52-54.26-113.9-115.06c-5.26-73.07,52.46-133.97,124.4-133.97v75.46
		c-27.21,0-49.3,22.06-49.3,49.27c0,27.23,22.09,49.3,49.3,49.3c11.81,0,22.68-4.18,31.17-11.13v-216.12
		c0-17.51,3.61-34.16,10.13-49.27c15.09-35.09,45.83-61.85,83.43-71.55c9.96-2.54,20.43-3.91,31.2-3.91H2281.24z"/>
	<rect x="2156.5" y="-1757.83" class="st17" width="124.73" height="75.44"/>
	
		<text transform="matrix(1 0 0 1 1844.0895 -1399.7806)" style="display:inline; font-family:'SourceHanSerifCN-SemiBold-GBpc-EUC-H'; font-size:87.7747px;">国际贸易公司</text>
</g>
<g id="图层_3" class="st14">
	<path class="st18" d="M2194.46-2072.31v0.01c-40.69,0.16-80.25,5.17-118.12,14.48c-90.36,22.2-171.1,68.87-234.8,132.57
		c-0.41,0.41-0.81,0.81-1.2,1.22c-63.09,63.51-109.31,143.8-131.37,233.58c-9.31,37.87-14.32,77.43-14.48,118.12h-0.01v-499.98
		H2194.46z"/>
	<path class="st18" d="M2503.51-1763.27v190.94h-190.93v-0.01c105.1-0.78,190.14-85.83,190.92-190.93H2503.51z"/>
	<path class="st15" d="M2312.58-1572.34v0.01h-1.47C2311.6-1572.33,2312.09-1572.33,2312.58-1572.34z"/>
	<path class="st15" d="M2312.58-1572.34v0.01h-1.47C2311.6-1572.33,2312.09-1572.33,2312.58-1572.34z"/>
	<path class="st15" d="M2312.58-1572.34v0.01h-1.47C2311.6-1572.33,2312.09-1572.33,2312.58-1572.34z"/>
	<path class="st15" d="M1694.49-1572.33c-0.01,0.7-0.01,1.41-0.01,2.11"/>
	<path class="st15" d="M2313.08-1571.83c-3.66,0-7.28-0.17-10.86-0.5"/>
	<path class="st18" d="M1926.32-1843.35c-1.03,1.13-2.12,2.22-3.25,3.25C1924.14-1841.2,1925.23-1842.28,1926.32-1843.35z"/>
	<path class="st18" d="M2076.35-1690.6"/>
	<polygon class="st18" points="2195.03,-1953.82 2194.46,-1953.73 2194.46,-1953.82 	"/>
</g>
</svg>
