<?xml version="1.0" encoding="utf-8"?>
<!-- Generator: Adobe Illustrator 24.0.1, SVG Export Plug-In . SVG Version: 6.00 Build 0)  -->
<svg version="1.1" xmlns="http://www.w3.org/2000/svg" xmlns:xlink="http://www.w3.org/1999/xlink" x="0px" y="0px"
	 viewBox="0 0 283.46 283.46" style="enable-background:new 0 0 283.46 283.46;" xml:space="preserve">
<style type="text/css">
	.st0{fill:#FFFFFF;}
	.st1{fill:none;stroke:#FFFFFF;stroke-miterlimit:10;}
	.st2{fill:#DC9A14;}
	.st3{fill:#5F5F5F;}
	.st4{fill:none;stroke:#FFFFFF;stroke-width:0.5;stroke-miterlimit:10;}
	.st5{fill:#0D8AB8;}
	.st6{fill:#3DB8AD;}
	.st7{display:none;}
	.st8{display:inline;fill:#5F5F5F;}
	.st9{display:inline;fill:#0D8AB8;}
	.st10{display:inline;fill:#3DB8AD;}
	.st11{display:inline;fill:#DC9A14;}
</style>
<g id="图层_1">
	<rect x="2521.91" y="-2080.13" class="st0" width="702.67" height="884.96"/>
	<path class="st1" d="M-11.3-1918.33v0.58c0,8.62-6.99,15.62-15.62,15.62h-41.39c-4.82,0-8.73,3.91-8.73,8.73v87.05
		c0,24.5-16.76,45.09-39.44,50.92c-5.55,1.43-11.45,1.98-17.57,1.48c-25.61-2.11-46.17-22.87-48.01-48.5
		c-1.63-22.7,11.15-42.61,30.12-51.52c10.38-4.88,22.32,2.64,22.32,14.11v0.64c0,6.12-3.64,11.52-9.14,14.21
		c-6.89,3.38-11.64,10.47-11.64,18.66c0,11.48,9.31,20.78,20.78,20.78c1.33,0,2.62-0.12,3.88-0.36c5.41-1.03,9.26-5.88,9.26-11.39
		l0-84.04c0-7.38,1.52-14.4,4.27-20.77c6.36-14.79,19.32-26.07,35.17-30.16c4.2-1.07,8.61-1.65,13.15-1.65h36.96
		C-18.29-1933.95-11.3-1926.95-11.3-1918.33z"/>
	<path class="st1" d="M-11.3-1844.97v0.57c0,8.62-6.99,15.62-15.62,15.62h-21.35c-8.62,0-15.62-6.99-15.62-15.62v-0.57
		c0-8.63,6.99-15.62,15.62-15.62h21.35C-18.29-1860.59-11.3-1853.59-11.3-1844.97z"/>
	<circle class="st1" cx="129.35" cy="-1823.09" r="52.58"/>
	<circle class="st1" cx="129.35" cy="-1823.09" r="20.78"/>
	<circle class="st1" cx="195.07" cy="-1898.1" r="52.58"/>
	<circle class="st1" cx="195.07" cy="-1898.1" r="20.78"/>
	<rect x="142.49" y="-1950.68" class="st1" width="39.44" height="180.17"/>
	<rect x="142.49" y="-1950.68" class="st1" width="105.16" height="31.81"/>
	<rect x="142.49" y="-1877.32" class="st1" width="105.16" height="31.81"/>
	<line class="st1" x1="129.35" y1="-1823.09" x2="129.35" y2="-1894.85"/>
	<line class="st1" x1="195.07" y1="-1898.1" x2="195.07" y2="-1828.33"/>
	<path class="st2" d="M170.59,63.13L170.59,63.13c-12.3,0.05-24.26,1.57-35.7,4.38c-27.31,6.71-51.72,20.82-70.97,40.07
		c-0.12,0.12-0.24,0.24-0.36,0.37c-19.07,19.2-33.04,43.47-39.71,70.6c-2.81,11.45-4.33,23.4-4.38,35.7h0V63.13H170.59z"/>
	<path class="st2" d="M206.29,63.13v151.13c-0.15,0-0.3,0-0.44,0h-35.26V63.13c0.04,0,0.07,0,0.11,0H206.29z"/>
	<path class="st3" d="M2651.79-2080.86v0.73h-0.01C2651.79-2080.37,2651.79-2080.62,2651.79-2080.86z"/>
	<path class="st3" d="M206.29,214.25L206.29,214.25l-0.44,0C206,214.26,206.14,214.26,206.29,214.25z"/>
	<path class="st3" d="M206.29,214.25L206.29,214.25l-0.44,0C206,214.26,206.14,214.26,206.29,214.25z"/>
	<path class="st3" d="M206.29,214.25L206.29,214.25l-0.44,0C206,214.26,206.14,214.26,206.29,214.25z"/>
	<path class="st3" d="M19.46,214.26c0,0.21,0,0.43,0,0.64"/>
	<path class="st3" d="M206.44,214.41c-1.11,0-2.2-0.05-3.28-0.15"/>
	<rect x="-1901.63" y="-2138.36" class="st4" width="809.03" height="499.98"/>
	<rect x="-1901.63" y="-2138.36" class="st4" width="499.98" height="499.98"/>
	<rect x="-1401.65" y="-2138.36" class="st4" width="309.05" height="309.05"/>
	<rect x="-1283.53" y="-1829.31" class="st4" width="190.93" height="190.93"/>
	<rect x="-1401.65" y="-1756.5" class="st4" width="118.12" height="118.12"/>
	<rect x="-1401.65" y="-1829.31" class="st4" width="72.81" height="72.81"/>
	<rect x="-1328.84" y="-1829.31" class="st4" width="45.31" height="45.31"/>
	<rect x="-1310.98" y="-1783.96" class="st4" width="27.45" height="27.45"/>
	<circle class="st4" cx="-1399.53" cy="-1636.27" r="502.1"/>
	<circle class="st4" cx="-1285" cy="-1830.78" r="192.4"/>
	<circle class="st4" cx="-1283.03" cy="-1756.5" r="118.62"/>
	<circle class="st4" cx="-1328.45" cy="-1756.5" r="73.2"/>
	<path class="st3" d="M2651.79-2081.59c0,0.12,0,0.23,0,0.35c0,0.13,0,0.25,0,0.38"/>
	<path class="st2" d="M89.54,132.33c-0.31,0.34-0.64,0.67-0.98,0.98C88.88,132.98,89.21,132.66,89.54,132.33z"/>
	<path class="st2" d="M134.89,178.51"/>
	<polygon class="st2" points="170.76,98.94 170.59,98.97 170.59,98.94 	"/>
	<path class="st5" d="M3063.93-1960.35v75.46h-135.75c-11.14,0-20.18,9.03-20.18,20.18v207.04c0,58.12-39.76,106.97-93.56,120.8
		c-13.17,3.39-27.17,4.7-41.68,3.5c-60.75-5.02-109.52-54.26-113.9-115.06c-5.26-73.07,52.46-133.97,124.4-133.97v75.46
		c-27.21,0-49.3,22.06-49.3,49.27c0,27.23,22.09,49.3,49.3,49.3c11.81,0,22.68-4.18,31.17-11.13v-216.12
		c0-17.51,3.61-34.16,10.13-49.27c15.09-35.09,45.83-61.85,83.43-71.55c9.96-2.54,20.43-3.91,31.2-3.91H3063.93z"/>
	<rect x="2939.2" y="-1786.32" class="st6" width="124.73" height="75.44"/>
	
		<text transform="matrix(1 0 0 1 2626.7825 -1428.2659)" style="font-family:'SourceHanSerifCN-SemiBold-GBpc-EUC-H'; font-size:87.7747px;">国际贸易公司</text>
	<path class="st5" d="M398.83-1058.07v31.81H341.6c-4.7,0-8.51,3.81-8.51,8.51v87.27c0,24.5-16.76,45.09-39.44,50.92
		c-5.55,1.43-11.45,1.98-17.57,1.48c-25.61-2.11-46.17-22.87-48.01-48.5c-2.22-30.8,22.11-56.47,52.44-56.47v31.81
		c-11.47,0-20.78,9.3-20.78,20.77c0,11.48,9.31,20.78,20.78,20.78c4.98,0,9.56-1.76,13.14-4.69v-91.1c0-7.38,1.52-14.4,4.27-20.77
		c6.36-14.79,19.32-26.07,35.17-30.16c4.2-1.07,8.61-1.65,13.15-1.65H398.83z"/>
	<rect x="346.25" y="-984.71" class="st6" width="52.58" height="31.8"/>
	
		<text transform="matrix(1 0 0 1 -129.7288 -1444.2067)" style="font-family:'SourceHanSerifCN-SemiBold-GBpc-EUC-H'; font-size:37px;">国际贸易公司</text>
</g>
<g id="图层_2" class="st7">
	<path class="st8" d="M1869.1-2052.38v0.73h-0.01C1869.1-2051.89,1869.1-2052.14,1869.1-2052.38z"/>
	<path class="st8" d="M1869.1-2053.11c0,0.12,0,0.23,0,0.35c0,0.13,0,0.25,0,0.38"/>
	<path class="st9" d="M2281.24-1931.86v75.46h-135.75c-11.14,0-20.18,9.03-20.18,20.18v207.04c0,58.12-39.76,106.97-93.56,120.8
		c-13.17,3.39-27.17,4.7-41.68,3.5c-60.75-5.02-109.52-54.26-113.9-115.06c-5.26-73.07,52.46-133.97,124.4-133.97v75.46
		c-27.21,0-49.3,22.06-49.3,49.27c0,27.23,22.09,49.3,49.3,49.3c11.81,0,22.68-4.18,31.17-11.13v-216.12
		c0-17.51,3.61-34.16,10.13-49.27c15.09-35.09,45.83-61.85,83.43-71.55c9.96-2.54,20.43-3.91,31.2-3.91H2281.24z"/>
	<rect x="2156.5" y="-1757.83" class="st10" width="124.73" height="75.44"/>
	
		<text transform="matrix(1 0 0 1 1844.0895 -1399.7806)" style="display:inline; font-family:'SourceHanSerifCN-SemiBold-GBpc-EUC-H'; font-size:87.7747px;">国际贸易公司</text>
</g>
<g id="图层_3" class="st7">
	<path class="st11" d="M2194.46-2072.31v0.01c-40.69,0.16-80.25,5.17-118.12,14.48c-90.36,22.2-171.1,68.87-234.8,132.57
		c-0.41,0.41-0.81,0.81-1.2,1.22c-63.09,63.51-109.31,143.8-131.37,233.58c-9.31,37.87-14.32,77.43-14.48,118.12h-0.01v-499.98
		H2194.46z"/>
	<path class="st11" d="M2503.51-1763.27v190.94h-190.93v-0.01c105.1-0.78,190.14-85.83,190.92-190.93H2503.51z"/>
	<path class="st8" d="M2312.58-1572.34v0.01h-1.47C2311.6-1572.33,2312.09-1572.33,2312.58-1572.34z"/>
	<path class="st8" d="M2312.58-1572.34v0.01h-1.47C2311.6-1572.33,2312.09-1572.33,2312.58-1572.34z"/>
	<path class="st8" d="M2312.58-1572.34v0.01h-1.47C2311.6-1572.33,2312.09-1572.33,2312.58-1572.34z"/>
	<path class="st8" d="M1694.49-1572.33c-0.01,0.7-0.01,1.41-0.01,2.11"/>
	<path class="st8" d="M2313.08-1571.83c-3.66,0-7.28-0.17-10.86-0.5"/>
	<path class="st11" d="M1926.32-1843.35c-1.03,1.13-2.12,2.22-3.25,3.25C1924.14-1841.2,1925.23-1842.28,1926.32-1843.35z"/>
	<path class="st11" d="M2076.35-1690.6"/>
	<polygon class="st11" points="2195.03,-1953.82 2194.46,-1953.73 2194.46,-1953.82 	"/>
</g>
</svg>
