<?xml version="1.0" encoding="utf-8"?>
<!-- Generator: Adobe Illustrator 24.0.1, SVG Export Plug-In . SVG Version: 6.00 Build 0)  -->
<svg version="1.1" id="图层_1" xmlns="http://www.w3.org/2000/svg" xmlns:xlink="http://www.w3.org/1999/xlink" x="0px" y="0px"
	 viewBox="0 0 1048.82 680.31" style="enable-background:new 0 0 1048.82 680.31;" xml:space="preserve">
<style type="text/css">
	.st0{fill:url(#SVGID_1_);}
	.st1{fill:url(#SVGID_2_);}
	.st2{fill:url(#SVGID_3_);}
	.st3{fill:none;stroke:url(#SVGID_4_);stroke-miterlimit:10;}
	.st4{fill:none;stroke:url(#SVGID_5_);stroke-miterlimit:10;}
	.st5{fill:none;stroke:url(#SVGID_6_);stroke-miterlimit:10;}
	.st6{fill:none;stroke:url(#SVGID_7_);stroke-miterlimit:10;}
	.st7{fill:none;stroke:url(#SVGID_8_);stroke-miterlimit:10;}
	.st8{fill:none;stroke:url(#SVGID_9_);stroke-miterlimit:10;}
	.st9{fill:none;stroke:url(#SVGID_10_);stroke-miterlimit:10;}
	.st10{fill:none;stroke:url(#SVGID_11_);stroke-miterlimit:10;}
	.st11{fill:none;stroke:url(#SVGID_12_);stroke-miterlimit:10;}
	.st12{fill:none;stroke:url(#SVGID_13_);stroke-miterlimit:10;}
	.st13{fill:none;stroke:url(#SVGID_14_);stroke-miterlimit:10;}
	.st14{fill:none;stroke:url(#SVGID_15_);stroke-miterlimit:10;}
	.st15{fill:none;stroke:url(#SVGID_16_);stroke-miterlimit:10;}
	.st16{fill:none;stroke:url(#SVGID_17_);stroke-miterlimit:10;}
	.st17{fill:none;stroke:url(#SVGID_18_);stroke-miterlimit:10;}
	.st18{fill:none;stroke:url(#SVGID_19_);stroke-miterlimit:10;}
	.st19{fill:none;stroke:url(#SVGID_20_);stroke-miterlimit:10;}
	.st20{fill:none;stroke:url(#SVGID_21_);stroke-miterlimit:10;}
	.st21{fill:none;stroke:url(#SVGID_22_);stroke-miterlimit:10;}
	.st22{fill:none;stroke:url(#SVGID_23_);stroke-miterlimit:10;}
	.st23{fill:none;stroke:url(#SVGID_24_);stroke-miterlimit:10;}
	.st24{fill:none;stroke:url(#SVGID_25_);stroke-miterlimit:10;}
	.st25{fill:none;stroke:url(#SVGID_26_);stroke-miterlimit:10;}
	.st26{fill:none;stroke:url(#SVGID_27_);stroke-miterlimit:10;}
	.st27{fill:none;stroke:url(#SVGID_28_);stroke-miterlimit:10;}
	.st28{fill:none;stroke:url(#SVGID_29_);stroke-miterlimit:10;}
	.st29{fill:none;stroke:url(#SVGID_30_);stroke-miterlimit:10;}
	.st30{fill:none;stroke:url(#SVGID_31_);stroke-miterlimit:10;}
	.st31{fill:none;stroke:url(#SVGID_32_);stroke-miterlimit:10;}
	.st32{fill:none;stroke:url(#SVGID_33_);stroke-miterlimit:10;}
	.st33{fill:none;stroke:url(#SVGID_34_);stroke-miterlimit:10;}
	.st34{fill:none;stroke:url(#SVGID_35_);stroke-miterlimit:10;}
	.st35{fill:none;stroke:url(#SVGID_36_);stroke-miterlimit:10;}
	.st36{fill:none;stroke:url(#SVGID_37_);stroke-miterlimit:10;}
</style>
<g>
	<g>
		<g>
			
				<linearGradient id="SVGID_1_" gradientUnits="userSpaceOnUse" x1="919.13" y1="191.964" x2="985.95" y2="342.7861" gradientTransform="matrix(1 0 0 1 0 -161.5751)">
				<stop  offset="0" style="stop-color:#5F96EB"/>
				<stop  offset="0.2333" style="stop-color:#6E88E6"/>
				<stop  offset="0.6786" style="stop-color:#9463D8"/>
				<stop  offset="0.9497" style="stop-color:#AF4ACF"/>
			</linearGradient>
			<circle class="st0" cx="952.54" cy="105.8" r="82.46"/>
		</g>
	</g>
</g>
<g>
	<g>
		<g>
			
				<linearGradient id="SVGID_2_" gradientUnits="userSpaceOnUse" x1="79.3713" y1="397.9052" x2="134.0687" y2="521.3649" gradientTransform="matrix(1 0 0 1 0 -161.5751)">
				<stop  offset="0" style="stop-color:#5F96EB"/>
				<stop  offset="0.2333" style="stop-color:#6E88E6"/>
				<stop  offset="0.6786" style="stop-color:#9463D8"/>
				<stop  offset="0.9497" style="stop-color:#AF4ACF"/>
			</linearGradient>
			<circle class="st1" cx="106.72" cy="298.06" r="67.5"/>
		</g>
	</g>
</g>
<g>
	<g>
		<g>
			
				<linearGradient id="SVGID_3_" gradientUnits="userSpaceOnUse" x1="2092.5093" y1="-641.5044" x2="2110.2878" y2="-601.3754" gradientTransform="matrix(0 -1 1 0 1164.1399 2630.0686)">
				<stop  offset="0" style="stop-color:#CCA592"/>
				<stop  offset="0.2208" style="stop-color:#C7969C"/>
				<stop  offset="0.6419" style="stop-color:#BB70B6"/>
				<stop  offset="1" style="stop-color:#AF4ACF"/>
			</linearGradient>
			<circle class="st2" cx="542.7" cy="528.67" r="21.94"/>
		</g>
	</g>
</g>
<g>
	
		<linearGradient id="SVGID_4_" gradientUnits="userSpaceOnUse" x1="720.7673" y1="524.6119" x2="797.1367" y2="696.9884" gradientTransform="matrix(0.998 -0.0634 0.0634 0.998 -54.0061 -23.0499)">
		<stop  offset="0" style="stop-color:#5F96EB"/>
		<stop  offset="0" style="stop-color:#6EA0ED;stop-opacity:0.8894"/>
		<stop  offset="0" style="stop-color:#95B9F2;stop-opacity:0.6772"/>
		<stop  offset="0" style="stop-color:#D3E2F9;stop-opacity:0.3879"/>
		<stop  offset="0" style="stop-color:#FFFFFF;stop-opacity:0.2"/>
	</linearGradient>
	<path class="st3" d="M422.5,643.22c0,0,66.35-156.88,252.15-90.25s219.11,16.02,258.8-28.41s57.07-72.48,140.6-67.6"/>
	
		<linearGradient id="SVGID_5_" gradientUnits="userSpaceOnUse" x1="708.369" y1="556.1484" x2="784.7314" y2="728.5093" gradientTransform="matrix(0.9968 -0.0466 0.0466 0.9968 -30.6214 -55.3618)">
		<stop  offset="0" style="stop-color:#5F96EB"/>
		<stop  offset="0" style="stop-color:#6EA0ED;stop-opacity:0.8894"/>
		<stop  offset="0" style="stop-color:#95B9F2;stop-opacity:0.6772"/>
		<stop  offset="0" style="stop-color:#D3E2F9;stop-opacity:0.3879"/>
		<stop  offset="0" style="stop-color:#FFFFFF;stop-opacity:0.2"/>
	</linearGradient>
	<path class="st4" d="M422.8,649.38c0,0,68.8-155.43,253.08-85.86s218.35,19.63,258.69-24.04s58.14-71.36,141.4-65.11"/>
	
		<linearGradient id="SVGID_6_" gradientUnits="userSpaceOnUse" x1="696.9239" y1="588.2142" x2="773.2905" y2="760.5846" gradientTransform="matrix(0.9956 -0.0299 0.0299 0.9956 -7.2366 -87.6286)">
		<stop  offset="0" style="stop-color:#5F96EB"/>
		<stop  offset="0" style="stop-color:#6EA0ED;stop-opacity:0.8894"/>
		<stop  offset="0" style="stop-color:#95B9F2;stop-opacity:0.6772"/>
		<stop  offset="0" style="stop-color:#D3E2F9;stop-opacity:0.3879"/>
		<stop  offset="0" style="stop-color:#FFFFFF;stop-opacity:0.2"/>
	</linearGradient>
	<path class="st5" d="M423.1,655.54c0,0,71.26-153.98,254.02-81.47s217.59,23.23,258.58-19.68s59.22-70.25,142.21-62.63"/>
	
		<linearGradient id="SVGID_7_" gradientUnits="userSpaceOnUse" x1="686.5172" y1="620.7614" x2="762.8842" y2="793.1326" gradientTransform="matrix(0.9944 -0.0132 0.0132 0.9944 16.1482 -119.8954)">
		<stop  offset="0" style="stop-color:#5F96EB"/>
		<stop  offset="0" style="stop-color:#6EA0ED;stop-opacity:0.8894"/>
		<stop  offset="0" style="stop-color:#95B9F2;stop-opacity:0.6772"/>
		<stop  offset="0" style="stop-color:#D3E2F9;stop-opacity:0.3879"/>
		<stop  offset="0" style="stop-color:#FFFFFF;stop-opacity:0.2"/>
	</linearGradient>
	<path class="st6" d="M423.4,661.7c0,0,73.72-152.52,254.95-77.08s216.84,26.83,258.47-15.32s60.29-69.14,143.02-60.14"/>
	
		<linearGradient id="SVGID_8_" gradientUnits="userSpaceOnUse" x1="677.1841" y1="653.7309" x2="753.5536" y2="826.108" gradientTransform="matrix(0.9932 3.509702e-03 -3.509702e-03 0.9932 39.533 -152.1665)">
		<stop  offset="0" style="stop-color:#5F96EB"/>
		<stop  offset="0" style="stop-color:#6EA0ED;stop-opacity:0.8894"/>
		<stop  offset="0" style="stop-color:#95B9F2;stop-opacity:0.6772"/>
		<stop  offset="0" style="stop-color:#D3E2F9;stop-opacity:0.3879"/>
		<stop  offset="0" style="stop-color:#FFFFFF;stop-opacity:0.2"/>
	</linearGradient>
	<path class="st7" d="M423.7,667.86c0,0,76.18-151.07,255.88-72.69s216.08,30.44,258.36-10.96c42.28-41.39,61.37-68.03,143.82-57.65
		"/>
	
		<linearGradient id="SVGID_9_" gradientUnits="userSpaceOnUse" x1="668.9319" y1="687.0771" x2="745.3086" y2="859.4701" gradientTransform="matrix(0.992 0.0202 -0.0202 0.992 62.9177 -184.4288)">
		<stop  offset="0" style="stop-color:#5F96EB"/>
		<stop  offset="0" style="stop-color:#6EA0ED;stop-opacity:0.8894"/>
		<stop  offset="0" style="stop-color:#95B9F2;stop-opacity:0.6772"/>
		<stop  offset="0" style="stop-color:#D3E2F9;stop-opacity:0.3879"/>
		<stop  offset="0" style="stop-color:#FFFFFF;stop-opacity:0.2"/>
	</linearGradient>
	<path class="st8" d="M424,674.02c0,0,78.63-149.61,256.81-68.29s215.32,34.04,258.25-6.59s62.44-66.92,144.63-55.16"/>
	
		<linearGradient id="SVGID_10_" gradientUnits="userSpaceOnUse" x1="661.8121" y1="720.7321" x2="738.1931" y2="893.1343" gradientTransform="matrix(0.9908 0.0369 -0.0369 0.9908 86.3024 -216.6956)">
		<stop  offset="0" style="stop-color:#5F96EB"/>
		<stop  offset="0" style="stop-color:#6EA0ED;stop-opacity:0.8894"/>
		<stop  offset="0" style="stop-color:#95B9F2;stop-opacity:0.6772"/>
		<stop  offset="0" style="stop-color:#D3E2F9;stop-opacity:0.3879"/>
		<stop  offset="0" style="stop-color:#FFFFFF;stop-opacity:0.2"/>
	</linearGradient>
	<path class="st9" d="M424.3,680.18c0,0,81.09-148.16,257.75-63.9s214.56,37.64,258.14-2.23s63.52-65.81,145.44-52.68"/>
	
		<linearGradient id="SVGID_11_" gradientUnits="userSpaceOnUse" x1="655.8846" y1="754.5707" x2="732.2462" y2="926.9294" gradientTransform="matrix(0.9897 0.0537 -0.0537 0.9897 109.6419 -249.0076)">
		<stop  offset="0" style="stop-color:#5F96EB"/>
		<stop  offset="0" style="stop-color:#6EA0ED;stop-opacity:0.8894"/>
		<stop  offset="0" style="stop-color:#95B9F2;stop-opacity:0.6772"/>
		<stop  offset="0" style="stop-color:#D3E2F9;stop-opacity:0.3879"/>
		<stop  offset="0" style="stop-color:#FFFFFF;stop-opacity:0.2"/>
	</linearGradient>
	<path class="st10" d="M424.6,686.34c0,0,83.55-146.7,258.68-59.51s213.8,41.25,258.03,2.13s64.59-64.7,146.24-50.19"/>
	
		<linearGradient id="SVGID_12_" gradientUnits="userSpaceOnUse" x1="651.0381" y1="788.6759" x2="727.4033" y2="961.0428" gradientTransform="matrix(0.9885 0.0704 -0.0704 0.9885 133.0267 -281.2744)">
		<stop  offset="0" style="stop-color:#5F96EB"/>
		<stop  offset="0" style="stop-color:#6EA0ED;stop-opacity:0.8894"/>
		<stop  offset="0" style="stop-color:#95B9F2;stop-opacity:0.6772"/>
		<stop  offset="0" style="stop-color:#D3E2F9;stop-opacity:0.3879"/>
		<stop  offset="0" style="stop-color:#FFFFFF;stop-opacity:0.2"/>
	</linearGradient>
	<path class="st11" d="M424.9,692.49c0,0,86-145.25,259.61-55.12s213.04,44.85,257.92,6.49s65.67-63.59,147.05-47.7"/>
	
		<linearGradient id="SVGID_13_" gradientUnits="userSpaceOnUse" x1="647.3498" y1="822.941" x2="723.7158" y2="995.3098" gradientTransform="matrix(0.9873 0.0871 -0.0871 0.9873 156.4115 -313.5409)">
		<stop  offset="0" style="stop-color:#5F96EB"/>
		<stop  offset="0" style="stop-color:#6EA0ED;stop-opacity:0.8894"/>
		<stop  offset="0" style="stop-color:#95B9F2;stop-opacity:0.6772"/>
		<stop  offset="0" style="stop-color:#D3E2F9;stop-opacity:0.3879"/>
		<stop  offset="0" style="stop-color:#FFFFFF;stop-opacity:0.2"/>
	</linearGradient>
	<path class="st12" d="M425.2,698.65c0,0,88.46-143.79,260.54-50.73s212.28,48.45,257.81,10.86c45.53-37.6,66.75-62.48,147.86-45.22
		"/>
	
		<linearGradient id="SVGID_14_" gradientUnits="userSpaceOnUse" x1="644.8256" y1="857.2875" x2="721.1976" y2="1029.6702" gradientTransform="matrix(0.9861 0.1038 -0.1038 0.9861 179.7962 -345.8078)">
		<stop  offset="0" style="stop-color:#5F96EB"/>
		<stop  offset="0" style="stop-color:#6EA0ED;stop-opacity:0.8894"/>
		<stop  offset="0" style="stop-color:#95B9F2;stop-opacity:0.6772"/>
		<stop  offset="0" style="stop-color:#D3E2F9;stop-opacity:0.3879"/>
		<stop  offset="0" style="stop-color:#FFFFFF;stop-opacity:0.2"/>
	</linearGradient>
	<path class="st13" d="M425.5,704.81c0,0,90.92-142.34,261.48-46.34s211.53,52.06,257.7,15.22s67.82-61.37,148.67-42.73"/>
	
		<linearGradient id="SVGID_15_" gradientUnits="userSpaceOnUse" x1="643.4653" y1="891.6654" x2="719.8381" y2="1064.0499" gradientTransform="matrix(0.9849 0.1205 -0.1205 0.9849 203.1809 -378.0745)">
		<stop  offset="0" style="stop-color:#5F96EB"/>
		<stop  offset="0" style="stop-color:#6EA0ED;stop-opacity:0.8894"/>
		<stop  offset="0" style="stop-color:#95B9F2;stop-opacity:0.6772"/>
		<stop  offset="0" style="stop-color:#D3E2F9;stop-opacity:0.3879"/>
		<stop  offset="0" style="stop-color:#FFFFFF;stop-opacity:0.2"/>
	</linearGradient>
	<path class="st14" d="M425.81,710.97c0,0,93.37-140.88,262.41-41.95s210.77,55.66,257.59,19.58
		c46.82-36.08,68.9-60.26,149.47-40.24"/>
	
		<linearGradient id="SVGID_16_" gradientUnits="userSpaceOnUse" x1="643.3661" y1="925.9921" x2="719.7293" y2="1098.3545" gradientTransform="matrix(0.9837 0.1373 -0.1373 0.9837 226.5657 -410.3864)">
		<stop  offset="0" style="stop-color:#5F96EB"/>
		<stop  offset="0" style="stop-color:#6EA0ED;stop-opacity:0.8894"/>
		<stop  offset="0" style="stop-color:#95B9F2;stop-opacity:0.6772"/>
		<stop  offset="0" style="stop-color:#D3E2F9;stop-opacity:0.3879"/>
		<stop  offset="0" style="stop-color:#FFFFFF;stop-opacity:0.2"/>
	</linearGradient>
	<path class="st15" d="M426.11,717.13c0,0,95.83-139.43,263.34-37.56s210.01,59.27,257.48,23.94
		c47.47-35.32,69.97-59.15,150.28-37.75"/>
	
		<linearGradient id="SVGID_17_" gradientUnits="userSpaceOnUse" x1="644.3161" y1="960.2497" x2="720.684" y2="1132.6232" gradientTransform="matrix(0.9825 0.154 -0.154 0.9825 249.9504 -442.6533)">
		<stop  offset="0" style="stop-color:#5F96EB"/>
		<stop  offset="0" style="stop-color:#6EA0ED;stop-opacity:0.8894"/>
		<stop  offset="0" style="stop-color:#95B9F2;stop-opacity:0.6772"/>
		<stop  offset="0" style="stop-color:#D3E2F9;stop-opacity:0.3879"/>
		<stop  offset="0" style="stop-color:#FFFFFF;stop-opacity:0.2"/>
	</linearGradient>
	<path class="st16" d="M426.41,723.29c0,0,98.29-137.97,264.27-33.16S899.93,753,948.05,718.44s71.05-58.04,151.09-35.27"/>
	
		<linearGradient id="SVGID_18_" gradientUnits="userSpaceOnUse" x1="646.4071" y1="994.3531" x2="722.7795" y2="1166.7366" gradientTransform="matrix(0.9813 0.1707 -0.1707 0.9813 273.3352 -474.92)">
		<stop  offset="0" style="stop-color:#5F96EB"/>
		<stop  offset="0" style="stop-color:#6EA0ED;stop-opacity:0.8894"/>
		<stop  offset="0" style="stop-color:#95B9F2;stop-opacity:0.6772"/>
		<stop  offset="0" style="stop-color:#D3E2F9;stop-opacity:0.3879"/>
		<stop  offset="0" style="stop-color:#FFFFFF;stop-opacity:0.2"/>
	</linearGradient>
	<path class="st17" d="M426.71,729.45c0,0,100.74-136.52,265.21-28.77s208.49,66.47,257.26,32.67s72.12-56.92,151.89-32.78"/>
	
		<linearGradient id="SVGID_19_" gradientUnits="userSpaceOnUse" x1="649.6286" y1="1028.2571" x2="726.0027" y2="1200.6442" gradientTransform="matrix(0.9801 0.1874 -0.1874 0.9801 296.7199 -507.1866)">
		<stop  offset="0" style="stop-color:#5F96EB"/>
		<stop  offset="0" style="stop-color:#6EA0ED;stop-opacity:0.8894"/>
		<stop  offset="0" style="stop-color:#95B9F2;stop-opacity:0.6772"/>
		<stop  offset="0" style="stop-color:#D3E2F9;stop-opacity:0.3879"/>
		<stop  offset="0" style="stop-color:#FFFFFF;stop-opacity:0.2"/>
	</linearGradient>
	<path class="st18" d="M427.01,735.61c0,0,103.2-135.06,266.14-24.38s207.73,70.08,257.15,37.03c49.42-33.04,73.2-55.81,152.7-30.29
		"/>
	
		<linearGradient id="SVGID_20_" gradientUnits="userSpaceOnUse" x1="653.9584" y1="1061.8994" x2="730.3362" y2="1234.2947" gradientTransform="matrix(0.9789 0.2041 -0.2041 0.9789 320.1047 -539.4535)">
		<stop  offset="0" style="stop-color:#5F96EB"/>
		<stop  offset="0" style="stop-color:#6EA0ED;stop-opacity:0.8894"/>
		<stop  offset="0" style="stop-color:#95B9F2;stop-opacity:0.6772"/>
		<stop  offset="0" style="stop-color:#D3E2F9;stop-opacity:0.3879"/>
		<stop  offset="0" style="stop-color:#FFFFFF;stop-opacity:0.2"/>
	</linearGradient>
	<path class="st19" d="M427.31,741.77c0,0,105.66-133.61,267.07-19.99s206.97,73.68,257.04,41.4c50.07-32.28,74.28-54.7,153.51-27.8
		"/>
</g>
<g>
	
		<linearGradient id="SVGID_21_" gradientUnits="userSpaceOnUse" x1="141.3015" y1="-344.1021" x2="217.673" y2="-171.7208" gradientTransform="matrix(0.9696 -0.2446 0.2446 0.9696 -19.6326 211.6348)">
		<stop  offset="0" style="stop-color:#5F96EB"/>
		<stop  offset="0" style="stop-color:#6EA0ED;stop-opacity:0.8894"/>
		<stop  offset="0" style="stop-color:#95B9F2;stop-opacity:0.6772"/>
		<stop  offset="0" style="stop-color:#D3E2F9;stop-opacity:0.3879"/>
		<stop  offset="0" style="stop-color:#FFFFFF;stop-opacity:0.2"/>
	</linearGradient>
	<path class="st20" d="M-203.82,79.09c0,0,36.58-166.36,231.43-134.79s218.35-24.27,249.26-75.2s42.87-81.68,125.88-92.14"/>
	
		<linearGradient id="SVGID_22_" gradientUnits="userSpaceOnUse" x1="113.2112" y1="-304.5909" x2="189.5786" y2="-132.2189" gradientTransform="matrix(0.9715 -0.2279 0.2279 0.9715 -2.5481 175.6117)">
		<stop  offset="0" style="stop-color:#5F96EB"/>
		<stop  offset="0" style="stop-color:#6EA0ED;stop-opacity:0.8894"/>
		<stop  offset="0" style="stop-color:#95B9F2;stop-opacity:0.6772"/>
		<stop  offset="0" style="stop-color:#D3E2F9;stop-opacity:0.3879"/>
		<stop  offset="0" style="stop-color:#FFFFFF;stop-opacity:0.2"/>
	</linearGradient>
	<path class="st21" d="M-202.4,85.09c0,0,39.26-165.38,233.15-130.64s218.27-20.59,249.95-70.89s44.13-80.78,127.13-89.85"/>
	
		<linearGradient id="SVGID_23_" gradientUnits="userSpaceOnUse" x1="86.3609" y1="-264.0463" x2="162.7331" y2="-91.6633" gradientTransform="matrix(0.9734 -0.2113 0.2113 0.9734 14.5366 139.634)">
		<stop  offset="0" style="stop-color:#5F96EB"/>
		<stop  offset="0" style="stop-color:#6EA0ED;stop-opacity:0.8894"/>
		<stop  offset="0" style="stop-color:#95B9F2;stop-opacity:0.6772"/>
		<stop  offset="0" style="stop-color:#D3E2F9;stop-opacity:0.3879"/>
		<stop  offset="0" style="stop-color:#FFFFFF;stop-opacity:0.2"/>
	</linearGradient>
	<path class="st22" d="M-200.98,91.09c0,0,41.94-164.4,234.86-126.49s218.18-16.9,250.64-66.58s45.39-79.89,128.38-87.55"/>
	
		<linearGradient id="SVGID_24_" gradientUnits="userSpaceOnUse" x1="60.7846" y1="-222.4422" x2="137.1476" y2="-50.0799" gradientTransform="matrix(0.9753 -0.1946 0.1946 0.9753 31.6211 103.6109)">
		<stop  offset="0" style="stop-color:#5F96EB"/>
		<stop  offset="0" style="stop-color:#6EA0ED;stop-opacity:0.8894"/>
		<stop  offset="0" style="stop-color:#95B9F2;stop-opacity:0.6772"/>
		<stop  offset="0" style="stop-color:#D3E2F9;stop-opacity:0.3879"/>
		<stop  offset="0" style="stop-color:#FFFFFF;stop-opacity:0.2"/>
	</linearGradient>
	<path class="st23" d="M-199.56,97.09c0,0,44.62-163.42,236.58-122.35s218.09-13.22,251.32-62.27s46.65-78.99,129.63-85.25"/>
	
		<linearGradient id="SVGID_25_" gradientUnits="userSpaceOnUse" x1="36.56" y1="-179.931" x2="112.9296" y2="-7.554" gradientTransform="matrix(0.9772 -0.178 0.178 0.9772 48.7057 67.6331)">
		<stop  offset="0" style="stop-color:#5F96EB"/>
		<stop  offset="0" style="stop-color:#6EA0ED;stop-opacity:0.8894"/>
		<stop  offset="0" style="stop-color:#95B9F2;stop-opacity:0.6772"/>
		<stop  offset="0" style="stop-color:#D3E2F9;stop-opacity:0.3879"/>
		<stop  offset="0" style="stop-color:#FFFFFF;stop-opacity:0.2"/>
	</linearGradient>
	<path class="st24" d="M-198.14,103.09c0,0,47.3-162.44,238.3-118.2s218-9.54,252.01-57.96s47.91-78.1,130.87-82.95"/>
	
		<linearGradient id="SVGID_26_" gradientUnits="userSpaceOnUse" x1="13.6806" y1="-136.4928" x2="90.0546" y2="35.8943" gradientTransform="matrix(0.979 -0.1613 0.1613 0.979 65.8357 31.6101)">
		<stop  offset="0" style="stop-color:#5F96EB"/>
		<stop  offset="0" style="stop-color:#6EA0ED;stop-opacity:0.8894"/>
		<stop  offset="0" style="stop-color:#95B9F2;stop-opacity:0.6772"/>
		<stop  offset="0" style="stop-color:#D3E2F9;stop-opacity:0.3879"/>
		<stop  offset="0" style="stop-color:#FFFFFF;stop-opacity:0.2"/>
	</linearGradient>
	<path class="st25" d="M-196.72,109.1c0,0,49.98-161.46,240.02-114.05S261.21-10.81,296-58.6s49.17-77.2,132.12-80.65"/>
	
		<linearGradient id="SVGID_27_" gradientUnits="userSpaceOnUse" x1="-7.7057" y1="-92.2133" x2="68.6579" y2="80.1501" gradientTransform="matrix(0.9809 -0.1446 0.1446 0.9809 82.9202 -4.4129)">
		<stop  offset="0" style="stop-color:#5F96EB"/>
		<stop  offset="0" style="stop-color:#6EA0ED;stop-opacity:0.8894"/>
		<stop  offset="0" style="stop-color:#95B9F2;stop-opacity:0.6772"/>
		<stop  offset="0" style="stop-color:#D3E2F9;stop-opacity:0.3879"/>
		<stop  offset="0" style="stop-color:#FFFFFF;stop-opacity:0.2"/>
	</linearGradient>
	<path class="st26" d="M-195.3,115.1c0,0,52.66-160.47,241.74-109.91s217.83-2.18,253.39-49.34s50.43-76.31,133.37-78.35"/>
	
		<linearGradient id="SVGID_28_" gradientUnits="userSpaceOnUse" x1="-27.6098" y1="-47.2465" x2="48.7589" y2="125.1285" gradientTransform="matrix(0.9828 -0.128 0.128 0.9828 100.0048 -40.3906)">
		<stop  offset="0" style="stop-color:#5F96EB"/>
		<stop  offset="0" style="stop-color:#6EA0ED;stop-opacity:0.8894"/>
		<stop  offset="0" style="stop-color:#95B9F2;stop-opacity:0.6772"/>
		<stop  offset="0" style="stop-color:#D3E2F9;stop-opacity:0.3879"/>
		<stop  offset="0" style="stop-color:#FFFFFF;stop-opacity:0.2"/>
	</linearGradient>
	<path class="st27" d="M-193.88,121.1c0,0,55.35-159.49,243.46-105.76s217.74,1.5,254.08-45.03s51.69-75.41,134.62-76.06"/>
	
		<linearGradient id="SVGID_29_" gradientUnits="userSpaceOnUse" x1="-45.9869" y1="-1.546" x2="30.3776" y2="170.82" gradientTransform="matrix(0.9847 -0.1113 0.1113 0.9847 117.0894 -76.4138)">
		<stop  offset="0" style="stop-color:#5F96EB"/>
		<stop  offset="0" style="stop-color:#6EA0ED;stop-opacity:0.8894"/>
		<stop  offset="0" style="stop-color:#95B9F2;stop-opacity:0.6772"/>
		<stop  offset="0" style="stop-color:#D3E2F9;stop-opacity:0.3879"/>
		<stop  offset="0" style="stop-color:#FFFFFF;stop-opacity:0.2"/>
	</linearGradient>
	<path class="st28" d="M-192.46,127.1c0,0,58.03-158.51,245.18-101.61s217.65,5.19,254.77-40.72s52.95-74.51,135.87-73.76"/>
	
		<linearGradient id="SVGID_30_" gradientUnits="userSpaceOnUse" x1="-62.8262" y1="44.6839" x2="13.5459" y2="217.0662" gradientTransform="matrix(0.9866 -0.0947 0.0947 0.9866 134.174 -112.3915)">
		<stop  offset="0" style="stop-color:#5F96EB"/>
		<stop  offset="0" style="stop-color:#6EA0ED;stop-opacity:0.8894"/>
		<stop  offset="0" style="stop-color:#95B9F2;stop-opacity:0.6772"/>
		<stop  offset="0" style="stop-color:#D3E2F9;stop-opacity:0.3879"/>
		<stop  offset="0" style="stop-color:#FFFFFF;stop-opacity:0.2"/>
	</linearGradient>
	<path class="st29" d="M-191.04,133.1c0,0,60.71-157.53,246.9-97.46s217.56,8.87,255.46-36.41c37.89-45.28,54.21-73.62,137.11-71.46
		"/>
	
		<linearGradient id="SVGID_31_" gradientUnits="userSpaceOnUse" x1="-78.0531" y1="91.493" x2="-1.6917" y2="263.8515" gradientTransform="matrix(0.9885 -0.078 0.078 0.9885 151.2586 -148.4146)">
		<stop  offset="0" style="stop-color:#5F96EB"/>
		<stop  offset="0" style="stop-color:#6EA0ED;stop-opacity:0.8894"/>
		<stop  offset="0" style="stop-color:#95B9F2;stop-opacity:0.6772"/>
		<stop  offset="0" style="stop-color:#D3E2F9;stop-opacity:0.3879"/>
		<stop  offset="0" style="stop-color:#FFFFFF;stop-opacity:0.2"/>
	</linearGradient>
	<path class="st30" d="M-189.61,139.1c0,0,63.39-156.55,248.61-93.32s217.48,12.55,256.15-32.1s55.47-72.72,138.36-69.16"/>
	
		<linearGradient id="SVGID_32_" gradientUnits="userSpaceOnUse" x1="-91.7652" y1="138.6761" x2="-15.3894" y2="311.0674" gradientTransform="matrix(0.9903 -0.0614 0.0614 0.9903 168.3885 -184.3923)">
		<stop  offset="0" style="stop-color:#5F96EB"/>
		<stop  offset="0" style="stop-color:#6EA0ED;stop-opacity:0.8894"/>
		<stop  offset="0" style="stop-color:#95B9F2;stop-opacity:0.6772"/>
		<stop  offset="0" style="stop-color:#D3E2F9;stop-opacity:0.3879"/>
		<stop  offset="0" style="stop-color:#FFFFFF;stop-opacity:0.2"/>
	</linearGradient>
	<path class="st31" d="M-188.19,145.1c0,0,66.07-155.57,250.33-89.17s217.39,16.23,256.83-27.8S375.7-43.7,458.58-38.73"/>
	
		<linearGradient id="SVGID_33_" gradientUnits="userSpaceOnUse" x1="-103.7678" y1="186.2748" x2="-27.3973" y2="358.6538" gradientTransform="matrix(0.9922 -0.0447 0.0447 0.9922 185.4731 -220.4155)">
		<stop  offset="0" style="stop-color:#5F96EB"/>
		<stop  offset="0" style="stop-color:#6EA0ED;stop-opacity:0.8894"/>
		<stop  offset="0" style="stop-color:#95B9F2;stop-opacity:0.6772"/>
		<stop  offset="0" style="stop-color:#D3E2F9;stop-opacity:0.3879"/>
		<stop  offset="0" style="stop-color:#FFFFFF;stop-opacity:0.2"/>
	</linearGradient>
	<path class="st32" d="M-186.77,151.1c0,0,68.75-154.59,252.05-85.02s217.3,19.91,257.52-23.49s57.99-70.93,140.86-64.57"/>
	
		<linearGradient id="SVGID_34_" gradientUnits="userSpaceOnUse" x1="-114.1767" y1="234.0715" x2="-37.8053" y2="406.4527" gradientTransform="matrix(0.9941 -0.0281 0.0281 0.9941 202.5577 -256.3931)">
		<stop  offset="0" style="stop-color:#5F96EB"/>
		<stop  offset="0" style="stop-color:#6EA0ED;stop-opacity:0.8894"/>
		<stop  offset="0" style="stop-color:#95B9F2;stop-opacity:0.6772"/>
		<stop  offset="0" style="stop-color:#D3E2F9;stop-opacity:0.3879"/>
		<stop  offset="0" style="stop-color:#FFFFFF;stop-opacity:0.2"/>
	</linearGradient>
	<path class="st33" d="M-185.35,157.1c0,0,71.43-153.6,253.77-80.88s217.21,23.59,258.21-19.18S385.88-13,468.73-5.23"/>
	
		<linearGradient id="SVGID_35_" gradientUnits="userSpaceOnUse" x1="-122.9072" y1="282.1223" x2="-46.5412" y2="454.4911" gradientTransform="matrix(0.996 -0.0114 0.0114 0.996 219.6423 -292.4162)">
		<stop  offset="0" style="stop-color:#5F96EB"/>
		<stop  offset="0" style="stop-color:#6EA0ED;stop-opacity:0.8894"/>
		<stop  offset="0" style="stop-color:#95B9F2;stop-opacity:0.6772"/>
		<stop  offset="0" style="stop-color:#D3E2F9;stop-opacity:0.3879"/>
		<stop  offset="0" style="stop-color:#FFFFFF;stop-opacity:0.2"/>
	</linearGradient>
	<path class="st34" d="M-183.93,163.1c0,0,74.11-152.62,255.49-76.73s217.12,27.27,258.9-14.87s60.51-69.14,143.35-59.97"/>
	
		<linearGradient id="SVGID_36_" gradientUnits="userSpaceOnUse" x1="-130.0174" y1="330.2436" x2="-53.6502" y2="502.6153" gradientTransform="matrix(0.9979 5.256819e-03 -5.256819e-03 0.9979 236.7269 -328.4196)">
		<stop  offset="0" style="stop-color:#5F96EB"/>
		<stop  offset="0" style="stop-color:#6EA0ED;stop-opacity:0.8894"/>
		<stop  offset="0" style="stop-color:#95B9F2;stop-opacity:0.6772"/>
		<stop  offset="0" style="stop-color:#D3E2F9;stop-opacity:0.3879"/>
		<stop  offset="0" style="stop-color:#FFFFFF;stop-opacity:0.2"/>
	</linearGradient>
	<path class="st35" d="M-182.51,169.1c0,0,76.8-151.64,257.21-72.58s217.04,30.96,259.59-10.56c42.55-41.51,61.77-68.24,144.6-57.67
		"/>
	
		<linearGradient id="SVGID_37_" gradientUnits="userSpaceOnUse" x1="-135.5056" y1="378.3712" x2="-59.1363" y2="550.7477" gradientTransform="matrix(0.9998 0.0219 -0.0219 0.9998 253.8115 -364.4169)">
		<stop  offset="0" style="stop-color:#5F96EB"/>
		<stop  offset="0" style="stop-color:#6EA0ED;stop-opacity:0.8894"/>
		<stop  offset="0" style="stop-color:#95B9F2;stop-opacity:0.6772"/>
		<stop  offset="0" style="stop-color:#D3E2F9;stop-opacity:0.3879"/>
		<stop  offset="0" style="stop-color:#FFFFFF;stop-opacity:0.2"/>
	</linearGradient>
	<path class="st36" d="M-181.09,175.1c0,0,79.48-150.66,258.93-68.43s216.95,34.64,260.28-6.25s63.03-67.35,145.85-55.37"/>
</g>
</svg>
