<svg xmlns="http://www.w3.org/2000/svg" xmlns:xlink="http://www.w3.org/1999/xlink" width="750" height="600" viewBox="0 0 1500 1200">
  <defs>
    <style>
      .cls-1 {
        filter: url(#filter);
      }

      .cls-2 {
        fill: #e18e30;
      }

      .cls-2, .cls-3 {
        fill-rule: evenodd;
      }

      .cls-3 {
        fill: #f5f6ff;
      }
    </style>
    <filter id="filter" filterUnits="userSpaceOnUse">
      <feOffset result="offset" dx="4.5" dy="7.794" in="SourceAlpha"/>
      <feGaussianBlur result="blur"/>
      <feFlood result="flood" flood-opacity="0.08"/>
      <feComposite result="composite" operator="in" in2="blur"/>
      <feBlend result="blend" in="SourceGraphic"/>
    </filter>
  </defs>
  <g id="组_4" data-name="组 4" class="cls-1">
    <path id="形状_8_副本_4" data-name="形状 8 副本 4" class="cls-2" d="M344.556,639.421s3.722,5.836-1.251,9.262-8.629-2.806-9.946-4.7-4.414-6.585-8.658-5.061a38.713,38.713,0,0,0-6.292,2.76s0.4-3.6,7.438-7.75,9.327-1.351,12.38-.653S344.556,639.421,344.556,639.421Z"/>
    <path id="形状_8_副本_3" data-name="形状 8 副本 3" class="cls-3" d="M363.138,650.354s7.233-14.222-5.24-21.234-19.45,8.115-22.054,12.747-8.662,16.085-18.956,13.346a93.8,93.8,0,0,1-15.387-5.222s1.838,8.273,19.313,16.573,22.123,1.389,29.078-.8S363.138,650.354,363.138,650.354Z"/>
    <path id="形状_8_副本_5" data-name="形状 8 副本 5" class="cls-2" d="M350.72,662.2s-5.95-3.725-2.835-8.962,9.174-1.125,11.206.035,6.911,4.11,10.173.914a39.192,39.192,0,0,0,4.62-5.194s1.181,3.449-3.529,10.223-8.028,5.206-11.147,5.873S350.72,662.2,350.72,662.2Z"/>
    <path id="椭圆_16_副本" data-name="椭圆 16 副本" class="cls-3" d="M374.931,633.177c-8.01.724-14.244,4.265-13.924,7.908s7.073,6.008,15.083,5.284,14.244-4.265,13.924-7.908S382.941,632.452,374.931,633.177Zm35.652-7.316c-25.688,2.323-46.112,8.75-45.62,14.354s21.716,8.265,47.4,5.941,46.112-8.75,45.619-14.354S436.27,623.537,410.583,625.861Z"/>
  </g>
</svg>
