<svg xmlns="http://www.w3.org/2000/svg" xmlns:xlink="http://www.w3.org/1999/xlink" width="750" height="600" viewBox="0 0 1500 1200">
  <defs>
    <style>
      .cls-1 {
        filter: url(#filter);
      }

      .cls-2 {
        fill: #e18e30;
      }

      .cls-2, .cls-3 {
        fill-rule: evenodd;
      }

      .cls-3 {
        fill: #f5f6ff;
      }
    </style>
    <filter id="filter" filterUnits="userSpaceOnUse">
      <feOffset result="offset" dx="4.5" dy="7.794" in="SourceAlpha"/>
      <feGaussianBlur result="blur"/>
      <feFlood result="flood" flood-opacity="0.12"/>
      <feComposite result="composite" operator="in" in2="blur"/>
      <feBlend result="blend" in="SourceGraphic"/>
    </filter>
  </defs>
  <g id="组_3" data-name="组 3" class="cls-1">
    <path id="形状_8_副本_2" data-name="形状 8 副本 2" class="cls-2" d="M1076.69,237.169s6.99,0.369,6.87,6.493-7.39,5.467-9.73,5.439-8-.239-9.26,4.162a39.252,39.252,0,0,0-1.44,6.821s-2.72-2.455-1.98-10.708,4.4-8.494,6.77-10.6S1076.69,237.169,1076.69,237.169Z"/>
    <path id="形状_8" data-name="形状 8" class="cls-3" d="M1068.43,236.085s-3.44-15.528,10.37-19.182,16.78,12.683,18.14,17.8,4.36,17.682,15,17.607a93.9,93.9,0,0,0,16.18-1.2s-3.85,7.524-22.81,11.174-21.74-4.179-27.92-8.024S1068.43,236.085,1068.43,236.085Z"/>
    <path id="形状_8_副本" data-name="形状 8 副本" class="cls-2" d="M1093.91,246.072s-6.83-.655-6.49-6.7,7.43-5.091,9.72-4.966,7.83,0.57,9.21-3.725a39.616,39.616,0,0,0,1.66-6.676s2.58,2.538,1.55,10.658-4.6,8.207-7,10.19S1093.91,246.072,1093.91,246.072Z"/>
    <path id="椭圆_16" data-name="椭圆 16" class="cls-3" d="M1057.39,223.367c7.86-1.351,14.73.4,15.33,3.915s-5.28,7.457-13.14,8.808-14.73-.4-15.34-3.915S1049.52,224.718,1057.39,223.367Zm-36.04,2.159c25.22-4.333,46.43-3.463,47.36,1.942s-18.76,13.3-43.98,17.633-46.434,3.464-47.366-1.942S996.125,229.86,1021.35,225.526Z"/>
  </g>
</svg>
